<?xml version="1.0" encoding="UTF-8"?>
<svg version="1.1" xmlns="http://www.w3.org/2000/svg" width="128" height="137">
<path d="M0 0 C6.01352205 5.22626286 6.01352205 5.22626286 7.3515625 7.90234375 C11.3115625 7.40734375 11.3115625 7.40734375 15.3515625 6.90234375 C19.3515625 12.52734375 19.3515625 12.52734375 19.3515625 15.90234375 C17.58297559 16.57494726 15.81160234 17.2402277 14.0390625 17.90234375 C12.55986328 18.45921875 12.55986328 18.45921875 11.05078125 19.02734375 C8.3515625 19.90234375 8.3515625 19.90234375 5.3515625 19.90234375 C5.6403125 20.87816406 5.9290625 21.85398438 6.2265625 22.859375 C6.60177269 24.1444699 6.97676112 25.42962956 7.3515625 26.71484375 C7.7228125 27.97941406 8.0940625 29.24398437 8.4765625 30.546875 C9.3515625 33.90234375 9.3515625 33.90234375 9.3515625 36.90234375 C10.2178125 36.40734375 10.2178125 36.40734375 11.1015625 35.90234375 C13.3515625 34.90234375 13.3515625 34.90234375 17.3515625 34.90234375 C18.19171486 49.3716344 14.50538104 60.93425783 5.45703125 72.27734375 C-2.5838347 81.10886999 -14.78336363 87.57121846 -26.8125 88.23828125 C-41.11937907 88.52999812 -53.15969178 86.01662692 -64.6484375 76.90234375 C-67.21259358 74.3471376 -69.39901023 71.7516183 -71.6484375 68.90234375 C-76.1034375 69.89234375 -76.1034375 69.89234375 -80.6484375 70.90234375 C-81.8536597 68.68124847 -83.03731154 66.45255725 -84.2109375 64.21484375 C-84.72430664 63.27608398 -84.72430664 63.27608398 -85.24804688 62.31835938 C-86.69097807 59.53452243 -87.63191185 57.27003951 -87.7734375 54.12109375 C-86.03891235 50.7002247 -83.63511974 50.29587655 -80.0859375 49.08984375 C-78.88839844 48.67089844 -77.69085938 48.25195312 -76.45703125 47.8203125 C-75.53019531 47.51738281 -74.60335937 47.21445312 -73.6484375 46.90234375 C-73.6484375 44.92234375 -73.6484375 42.94234375 -73.6484375 40.90234375 C-74.793125 41.39734375 -74.793125 41.39734375 -75.9609375 41.90234375 C-78.6484375 42.90234375 -78.6484375 42.90234375 -81.6484375 42.90234375 C-82.37608677 29.21175749 -79.31453113 16.85790627 -70.38671875 6.203125 C-51.45645111 -13.6781137 -22.14384739 -17.53871099 0 0 Z M-55.6171875 17.53515625 C-60.20710856 22.88417964 -62.06823486 27.93991209 -62.6484375 34.90234375 C-60.3384375 34.24234375 -58.0284375 33.58234375 -55.6484375 32.90234375 C-55.6484375 36.20234375 -55.6484375 39.50234375 -55.6484375 42.90234375 C-56.76992188 43.19238281 -56.76992188 43.19238281 -57.9140625 43.48828125 C-58.89890625 43.74867187 -59.88375 44.0090625 -60.8984375 44.27734375 C-62.36023438 44.66019531 -62.36023438 44.66019531 -63.8515625 45.05078125 C-66.30681053 45.79832884 -68.40461155 46.67358192 -70.6484375 47.90234375 C-68.99135918 53.55147438 -67.17081738 58.16535012 -63.6484375 62.90234375 C-63.03097656 62.76054688 -62.41351563 62.61875 -61.77734375 62.47265625 C-57.84348773 61.79006936 -54.88911965 61.28800598 -51.2265625 63.1015625 C-49.71098963 64.1807549 -48.20953164 65.28003734 -46.72265625 66.3984375 C-40.89764204 70.62184705 -33.55525599 70.62839745 -26.6484375 69.90234375 C-17.49851796 67.91103895 -10.13503734 63.30740761 -5.015625 55.37109375 C-2.7024565 50.98268265 -1.04336817 46.90479888 -0.6484375 41.90234375 C-2.9584375 42.56234375 -5.2684375 43.22234375 -7.6484375 43.90234375 C-7.85339844 42.938125 -8.05835938 41.97390625 -8.26953125 40.98046875 C-8.53894531 39.7171875 -8.80835938 38.45390625 -9.0859375 37.15234375 C-9.35277344 35.899375 -9.61960938 34.64640625 -9.89453125 33.35546875 C-10.43892699 30.861967 -11.02942891 28.3783781 -11.6484375 25.90234375 C-5.2134375 23.42734375 -5.2134375 23.42734375 1.3515625 20.90234375 C0.0352521 15.98109239 0.0352521 15.98109239 -2.4609375 15.02734375 C-4.70450649 14.77943473 -4.70450649 14.77943473 -7.00390625 15.5703125 C-10.43008823 16.00048306 -11.43003236 15.13343353 -14.1484375 13.08984375 C-27.62504909 3.1010172 -43.99847131 6.02960938 -55.6171875 17.53515625 Z " fill="#DB202D" transform="translate(97.6484375,14.09765625)"/>
<path d="M0 0 C2.66666667 5.33333333 5.33333333 10.66666667 8 16 C2.10825719 18.74390859 -3.79522136 21.06375702 -10 23 C-11.2052222 20.77890472 -12.38887404 18.5502135 -13.5625 16.3125 C-13.90474609 15.68666016 -14.24699219 15.06082031 -14.59960938 14.41601562 C-16.06299253 11.59272086 -16.99406956 9.38817404 -17.04296875 6.1875 C-16 4 -16 4 -13.671875 2.63671875 C-12.70765625 2.32347656 -11.7434375 2.01023437 -10.75 1.6875 C-9.79609375 1.36136719 -8.8421875 1.03523438 -7.859375 0.69921875 C-5.11046616 0.0270129 -2.81482096 -0.13868643 0 0 Z " fill="#EB2025" transform="translate(27,62)"/>
<path d="M0 0 C0.67321284 2.24805002 1.33834123 4.49852224 2 6.75 C2.556875 8.62945312 2.556875 8.62945312 3.125 10.546875 C4 14 4 14 4 18 C-1.97283522 20.41116504 -7.95972825 22.76286232 -14 25 C-14.18175781 23.82244141 -14.18175781 23.82244141 -14.3671875 22.62109375 C-15.27186083 16.94948787 -16.2579299 11.47507746 -18 6 C-15.00476403 4.65573288 -12.00383761 3.32492501 -9 2 C-8.071875 1.5875 -7.14375 1.175 -6.1875 0.75 C-4 0 -4 0 0 0 Z " fill="#EA2126" transform="translate(103,34)"/>
<path d="M0 0 C5.45949074 1.09189815 6.01471081 1.68791562 9 6 C9.33 4.02 9.66 2.04 10 0 C11.32 0 12.64 0 14 0 C14 5.28 14 10.56 14 16 C12.35 16 10.7 16 9 16 C6.6875 13 6.6875 13 5 10 C4.67 11.98 4.34 13.96 4 16 C2.68 16 1.36 16 0 16 C0 10.72 0 5.44 0 0 Z " fill="#231E20" transform="translate(49,117)"/>
<path d="M0 0 C0 3.3 0 6.6 0 10 C-2.05590454 10.86992154 -4.12005336 11.72037689 -6.1875 12.5625 C-7.91033203 13.27599609 -7.91033203 13.27599609 -9.66796875 14.00390625 C-13.05139127 15.01536316 -14.68416941 15.04283184 -18 14 C-18 11.69 -18 9.38 -18 7 C-4.48091603 0 -4.48091603 0 0 0 Z " fill="#C22032" transform="translate(42,47)"/>
<path d="M0 0 C1.95876446 1.59869747 2.73212786 2.93132035 3.59375 5.30078125 C3.59375 6.29078125 3.59375 7.28078125 3.59375 8.30078125 C-8.64979244 13.26019084 -8.64979244 13.26019084 -14.40625 12.30078125 C-16.34375 10.48828125 -16.34375 10.48828125 -17.40625 8.30078125 C-17.40625 7.31078125 -17.40625 6.32078125 -17.40625 5.30078125 C-14.9964981 4.23977109 -12.58075146 3.20204897 -10.15625 2.17578125 C-9.47433594 1.87285156 -8.79242188 1.56992187 -8.08984375 1.2578125 C-2.99339107 -0.86983279 -2.99339107 -0.86983279 0 0 Z " fill="#C32031" transform="translate(113.40625,21.69921875)"/>
<path d="M0 0 C3.4375 0.5 3.4375 0.5 5.3125 1.625 C7.53628556 5.33130927 7.58384394 8.5487644 6.9375 12.75 C5.4375 15.5 5.4375 15.5 2.125 17.0625 C-1.5625 17.5 -1.5625 17.5 -4.4375 16.6875 C-7.22371147 13.81934113 -7.5425423 11.65671418 -7.75390625 7.73046875 C-7.5625 5.5 -7.5625 5.5 -6.0625 2.4375 C-3.5625 0.5 -3.5625 0.5 0 0 Z M-1.5625 4.5 C-3.89641203 7.28114056 -3.89641203 7.28114056 -3.1875 10.1875 C-2.98125 10.950625 -2.775 11.71375 -2.5625 12.5 C-1.5725 12.83 -0.5825 13.16 0.4375 13.5 C2.78723818 11.60244856 2.78723818 11.60244856 2.5625 8.375 C2.52125 7.42625 2.48 6.4775 2.4375 5.5 C1.1175 5.17 -0.2025 4.84 -1.5625 4.5 Z " fill="#221E20" transform="translate(10.5625,116.5)"/>
<path d="M0 0 C3.96 0 7.92 0 12 0 C12 1.32 12 2.64 12 4 C9.36 4 6.72 4 4 4 C4 4.66 4 5.32 4 6 C5.32 6 6.64 6 8 6 C8 7.32 8 8.64 8 10 C6.68 10 5.36 10 4 10 C4 10.66 4 11.32 4 12 C6.64 12 9.28 12 12 12 C12 13.32 12 14.64 12 16 C8.04 16 4.08 16 0 16 C0 10.72 0 5.44 0 0 Z " fill="#241E21" transform="translate(35,117)"/>
<path d="M0 0 C1.375 2.0625 1.375 2.0625 2 4 C-10.48519362 9.37129841 -10.48519362 9.37129841 -17 11 C-18.5625 9.1875 -18.5625 9.1875 -20 7 C-19 4 -19 4 -16.26953125 2.578125 C-15.12871094 2.13984375 -13.98789062 1.7015625 -12.8125 1.25 C-11.68457031 0.80140625 -10.55664062 0.3528125 -9.39453125 -0.109375 C-5.71682871 -1.0742958 -3.60445052 -1.18931218 0 0 Z " fill="#BD2031" transform="translate(46,76)"/>
<path d="M0 0 C1.588125 -0.061875 3.17625 -0.12375 4.8125 -0.1875 C6.15248047 -0.23970703 6.15248047 -0.23970703 7.51953125 -0.29296875 C10 0 10 0 11.80078125 1.35546875 C13.50731102 3.69569361 13.42408618 5.1727588 13 8 C11.875 9.8125 11.875 9.8125 10 11 C6.8125 11.1875 6.8125 11.1875 4 11 C4 12.65 4 14.3 4 16 C2.68 16 1.36 16 0 16 C0 10.72 0 5.44 0 0 Z M4 4 C4 4.99 4 5.98 4 7 C5.65 6.67 7.3 6.34 9 6 C8.67 5.34 8.34 4.68 8 4 C6.68 4 5.36 4 4 4 Z " fill="#231E20" transform="translate(20,117)"/>
<path d="M0 0 C0 2.31 0 4.62 0 7 C-2.60197202 8.00605593 -5.20629362 9.00502525 -7.8125 10 C-8.55048828 10.28617188 -9.28847656 10.57234375 -10.04882812 10.8671875 C-10.76103516 11.13789062 -11.47324219 11.40859375 -12.20703125 11.6875 C-12.8616333 11.93886719 -13.51623535 12.19023438 -14.19067383 12.44921875 C-16 13 -16 13 -19 13 C-18.92578125 9.71484375 -18.92578125 9.71484375 -18 6 C-15.5759416 4.39755001 -13.85041287 3.5072319 -11.1875 2.5625 C-10.55779297 2.30791016 -9.92808594 2.05332031 -9.27929688 1.79101562 C-5.94893163 0.49451457 -3.62090654 0 0 0 Z " fill="#BC2032" transform="translate(115,49)"/>
<path d="M0 0 C6.125 -0.4375 6.125 -0.4375 9 1 C8.67 1.99 8.34 2.98 8 4 C5.69 3.67 3.38 3.34 1 3 C2.81679655 5.00803829 4.24111255 6.12335991 6.6875 7.375 C9 9 9 9 9.625 11.5 C9 14 9 14 6.875 15.9375 C3.19004389 17.29933161 1.51934858 16.555061 -2 15 C-1.67 14.01 -1.34 13.02 -1 12 C1.97 12.495 1.97 12.495 5 13 C4.30490919 9.80674569 4.30490919 9.80674569 1.5 8.5625 C-1 7 -1 7 -1.9375 5 C-2 3 -2 3 0 0 Z " fill="#241E21" transform="translate(68,117)"/>
<path d="M0 0 C0.66 0 1.32 0 2 0 C2 2.31 2 4.62 2 7 C4.31 7 6.62 7 9 7 C9 4.69 9 2.38 9 0 C9.99 0 10.98 0 12 0 C12 5.28 12 10.56 12 16 C11.01 16 10.02 16 9 16 C9 13.69 9 11.38 9 9 C6.69 9 4.38 9 2 9 C2 11.31 2 13.62 2 16 C1.34 16 0.68 16 0 16 C0 10.72 0 5.44 0 0 Z " fill="#231F21" transform="translate(80,117)"/>
<path d="M0 0 C3.3 0 6.6 0 10 0 C10 0.99 10 1.98 10 3 C7.69 3 5.38 3 3 3 C3 4.32 3 5.64 3 7 C4.32 7 5.64 7 7 7 C7 7.66 7 8.32 7 9 C5.68 9 4.36 9 3 9 C3 11.31 3 13.62 3 16 C2.01 16 1.02 16 0 16 C0 10.72 0 5.44 0 0 Z " fill="#231F20" transform="translate(101,117)"/>
<path d="M0 0 C0.33 1.32 0.66 2.64 1 4 C-0.89332534 4.81832722 -2.78977733 5.62942268 -4.6875 6.4375 C-5.74324219 6.88996094 -6.79898438 7.34242187 -7.88671875 7.80859375 C-10.61972529 8.85447455 -13.12042337 9.53520748 -16 10 C-15.97265625 8.203125 -15.97265625 8.203125 -15 6 C-12.45314795 4.71626879 -10.10273303 3.70238956 -7.4375 2.75 C-6.72658203 2.481875 -6.01566406 2.21375 -5.28320312 1.9375 C-3.52736291 1.2775869 -1.76430603 0.63693359 0 0 Z " fill="#B0213A" transform="translate(40,47)"/>
<path d="M0 0 C0 0.99 0 1.98 0 3 C-2.24732102 3.84124316 -4.49738785 4.67314832 -6.75 5.5 C-7.70132813 5.85771484 -7.70132813 5.85771484 -8.671875 6.22265625 C-12.03286607 7.44801758 -14.36871587 8 -18 8 C-18 7.01 -18 6.02 -18 5 C-15.56686628 3.96748938 -13.12943108 2.94880479 -10.6875 1.9375 C-9.65206055 1.49567383 -9.65206055 1.49567383 -8.59570312 1.04492188 C-3.33984375 -1.11328125 -3.33984375 -1.11328125 0 0 Z " fill="#B02139" transform="translate(114,22)"/>
<path d="M0 0 C3.96 0 7.92 0 12 0 C12 0.99 12 1.98 12 3 C10.35 3 8.7 3 7 3 C7 7.29 7 11.58 7 16 C6.34 16 5.68 16 5 16 C5 11.71 5 7.42 5 3 C3.35 3 1.7 3 0 3 C0 2.01 0 1.02 0 0 Z " fill="#241E20" transform="translate(113,117)"/>
<path d="M0 0 C0.99 0 1.98 0 3 0 C3 5.28 3 10.56 3 16 C2.01 16 1.02 16 0 16 C0 10.72 0 5.44 0 0 Z " fill="#231F21" transform="translate(95,117)"/>
</svg>
